<?xml version="1.0" encoding="utf-8"?>
<!-- Generator: Adobe Illustrator 21.0.2, SVG Export Plug-In . SVG Version: 6.00 Build 0)  -->
<svg version="1.0" id="Capa_1" xmlns="http://www.w3.org/2000/svg" xmlns:xlink="http://www.w3.org/1999/xlink" x="0px" y="0px"
	 width="1096px" height="300px" viewBox="0 0 1096 300" enable-background="new 0 0 1096 780" xml:space="preserve">
<path fill="none" stroke="#FFFFFF" stroke-width="2" stroke-miterlimit="10" d="M17.9,169h132.9c0.3,0,0.6,0,0.8-0.1
	c13.2,41.8,59.8,65.3,101.4,51.6c22.1-7.2,41-21.1,61.5-31.6c19.8-10.2,53.4-22,71.3-1.9c8.2,9.2,6,29.9-8.4,31.5
	c-10,1.1-17.2-9.1-16.1-18.3c1-8.1,7.1-14.6,13.8-18.7c23.2-14.5,51.2-12.4,77.3-12.4c12.2,0,24.3,0,36.5,0c1.1,0,2.4,0,2.4,0
	c28.9,0,45.6,17.4,41.8,42c-3.2,20.8-25.4,35.3-45.3,25.8c-18.3-8.7-22.2-34.4-5.9-47c15.2-11.8,42-1.3,37.6,20.1
	c-1.8,8.8-10.3,15.6-19.5,14.7c-9-0.9-15.3-9-14.9-17.8"/>
<path fill="none" stroke="#FFFFFF" stroke-width="2" stroke-miterlimit="10" d="M1080,169H947.1c-0.3,0-0.6,0-0.8-0.1
	c-13.2,41.8-59.8,65.3-101.4,51.6c-22.1-7.2-41-21.1-61.5-31.6c-19.8-10.2-53.4-22-71.3-1.9c-8.2,9.2-6,29.9,8.4,31.5
	c10,1.1,17.2-9.1,16.1-18.3c-1-8.1-7.1-14.6-13.8-18.7c-23.2-14.5-51.2-12.4-77.3-12.4c-12.2,0-24.3,0-36.5,0c-1.1,0-2.4,0-2.4,0
	c-28.9,0-45.6,17.4-41.8,42c3.2,20.8,25.4,35.3,45.3,25.8c18.3-8.7,22.2-34.4,5.9-47c-15.2-11.8-42-1.3-37.6,20.1
	c1.8,8.8,10.3,15.6,19.5,14.7c9-0.9,15.3-9,14.9-17.8"/>
</svg>
